<mxfile host="65bd71144e">
    <diagram id="-RQJnHNUL1bMwbcudZb_" name="Page-1">
        <mxGraphModel dx="1832" dy="809" grid="1" gridSize="10" guides="1" tooltips="1" connect="1" arrows="1" fold="1" page="1" pageScale="1" pageWidth="827" pageHeight="1169" math="0" shadow="0">
            <root>
                <mxCell id="0"/>
                <mxCell id="1" parent="0"/>
                <mxCell id="93" value="" style="group" vertex="1" connectable="0" parent="1">
                    <mxGeometry x="-110" y="30" width="690" height="240" as="geometry"/>
                </mxCell>
                <mxCell id="94" value="" style="rounded=1;whiteSpace=wrap;html=1;fillColor=#dae8fc;strokeColor=#6c8ebf;" vertex="1" parent="93">
                    <mxGeometry x="160" y="10" width="530" height="230" as="geometry"/>
                </mxCell>
                <mxCell id="95" value="" style="sketch=0;aspect=fixed;html=1;points=[];align=center;image;fontSize=12;image=img/lib/mscae/Kubernetes.svg;" vertex="1" parent="93">
                    <mxGeometry x="370" y="30" width="50" height="48" as="geometry"/>
                </mxCell>
                <mxCell id="96" value="" style="group" vertex="1" connectable="0" parent="93">
                    <mxGeometry x="440" y="70" width="220" height="115" as="geometry"/>
                </mxCell>
                <mxCell id="97" value="" style="rounded=1;whiteSpace=wrap;html=1;fillColor=#f5f5f5;fontColor=#333333;strokeColor=#666666;" vertex="1" parent="96">
                    <mxGeometry width="220" height="115" as="geometry"/>
                </mxCell>
                <mxCell id="98" value="API&amp;nbsp;&lt;br&gt;Server" style="rounded=1;whiteSpace=wrap;html=1;" vertex="1" parent="96">
                    <mxGeometry x="20" y="12.5" width="60" height="50" as="geometry"/>
                </mxCell>
                <mxCell id="99" value="Controller&lt;br&gt;Manager" style="rounded=1;whiteSpace=wrap;html=1;" vertex="1" parent="96">
                    <mxGeometry x="90" y="12.5" width="120" height="30" as="geometry"/>
                </mxCell>
                <mxCell id="100" value="Scheduler" style="rounded=1;whiteSpace=wrap;html=1;" vertex="1" parent="96">
                    <mxGeometry x="20" y="72.5" width="110" height="30" as="geometry"/>
                </mxCell>
                <mxCell id="101" value="etcd" style="shape=image;verticalLabelPosition=bottom;verticalAlign=top;imageAspect=0;aspect=fixed;image=data:image/svg+xml,PHN2ZyB4bWxucz0iaHR0cDovL3d3dy53My5vcmcvMjAwMC9zdmciIHJvbGU9ImltZyIgdmlld0JveD0iLTYuMzEgMy42OSA1MTAuMTIgNDkzLjYyIj48ZGVmcz48c3R5bGU+LmNscy0xe2ZpbGw6IzQxOWVkYX08L3N0eWxlPjwvZGVmcz48cGF0aCBkPSJNMjI4LjE3NSAyMjQuNjg0YTMxLjk5NCAzMS45OTQgMCAxIDEtMzIuMDA3LTMxLjk4NiAzMi4wMTEgMzIuMDExIDAgMCAxIDMyLjAwNyAzMS45ODZ6bTQxLjM3IDBhMzIuMDA3IDMyLjAwNyAwIDEgMCAzMi4wMDctMzEuOTg2IDMxLjk4OCAzMS45ODggMCAwIDAtMzIuMDA3IDMxLjk4NnoiIGNsYXNzPSJjbHMtMSIvPjxwYXRoIGQ9Ik00ODcuMzcxIDI1OS4zOTlhODcuODIgODcuODIgMCAwIDEtNy4wNy4yNjcgOTIuMzYyIDkyLjM2MiAwIDAgMS00MC42MjEtOS40NTUgMzc3LjIwOSAzNzcuMjA5IDAgMCAwIDUuNDctNzEuODYgMzcxLjgwOCAzNzEuODA4IDAgMCAwLTQ2LjUwNy01NS4xMSA5Mi4zOTYgOTIuMzk2IDAgMCAxIDMyLjc3Mi0zNS4xMDJsNi4wMTYtMy43MjktNC42OTUtNS4zYTI0NC45MDYgMjQ0LjkwNiAwIDAgMC04NS41MjQtNjIuMzc3bC02LjUwNy0yLjgyOC0xLjY1NCA2Ljg2MmE5Mi4xNDQgOTIuMTQ0IDAgMCAxLTIzLjE5IDQyLjA5NiAzNzEuOTI4IDM3MS45MjggMCAwIDAtNjcuMDA2LTI3LjYwMiAzNzAuNjI0IDM3MC42MjQgMCAwIDAtNjYuOTA4IDI3LjU1OCA5MS45MTUgOTEuOTE1IDAgMCAxLTIzLjA5OC00Mi4wMDNsLTEuNjgxLTYuODg0LTYuNDg2IDIuODE3YTI0Ny4yMzIgMjQ3LjIzMiAwIDAgMC04NS41MTggNjIuMzU1bC00LjY4OSA1LjMgNi4wMDUgMy43MjRhOTIuMjQ5IDkyLjI0OSAwIDAgMSAzMi42OTUgMzQuOTE3IDM3NC42MyAzNzQuNjMgMCAwIDAtNDYuNDI1IDU0LjkwOCAzNzYuOTU2IDM3Ni45NTYgMCAwIDAgNS4zMjggNzIuMzM0IDkyLjExNSA5Mi4xMTUgMCAwIDEtNDAuMzc2IDkuMzc0IDg2LjM2IDg2LjM2IDAgMCAxLTcuMDg2LS4yNjhsLTcuMDUzLS41NTEuNjU1IDcuMDQyYTI0My40MTMgMjQzLjQxMyAwIDAgMCAzMi44OTcgMTAwLjY3OGwzLjU4MSA2LjA5OCA1LjM3Mi00LjU3NWE5Mi4wNTIgOTIuMDUyIDAgMCAxIDQzLjU5Mi0yMC40MDYgMzczLjk3IDM3My45NyAwIDAgMCAzNy4zMDggNjAuNzYgMzc3LjcxNyAzNzcuNzE3IDAgMCAwIDcwLjY5IDE3LjM4MiA5MS44NyA5MS44NyAwIDAgMS01Ljg4NSA0OC4yMzJsLTIuNjg2IDYuNTQgNi45IDEuNTI5YTI0Ni4zNTUgMjQ2LjM1NSAwIDAgMCA1Mi45NjYgNS44NTdsNTIuOTU0LTUuODU3IDYuOTA2LTEuNTI5LTIuNjc1LTYuNTRhOTEuNzU1IDkxLjc1NSAwIDAgMS01Ljg2OS00OC4yODYgMzc3Ljc4NCAzNzcuNzg0IDAgMCAwIDcwLjQwNy0xNy4zMjggMzcyLjMgMzcyLjMgMCAwIDAgMzcuMzM1LTYwLjgxNSA5Mi4yMzMgOTIuMjMzIDAgMCAxIDQzLjgxIDIwLjQyOGw1LjM3NyA0LjU1MyAzLjU4Ny02LjA0OWEyNDIuODQ0IDI0Mi44NDQgMCAwIDAgMzIuODU5LTEwMC42NzJsLjY1NS03LjAzN3pNMzI0LjY0NCAzNDUuNDVhMjg1Ljg4NCAyODUuODg0IDAgMCAxLTE1MS42MjggMCAyOTAuMTI0IDI5MC4xMjQgMCAwIDEtNDYuMTQxLTE0My4zODUgMjg4LjY3NSAyODguNjc1IDAgMCAxIDU0Ljk1Ny01Mi4zMTUgMjkzLjA2NSAyOTMuMDY1IDAgMCAxIDY3LjAyOC0zNi40NjIgMjkzLjk3NiAyOTMuOTc2IDAgMCAxIDY2Ljg5MSAzNi4zNjQgMjkwLjg4NiAyOTAuODg2IDAgMCAxIDU1LjE5OCA1Mi42NzUgMjkyLjI1MyAyOTIuMjUzIDAgMCAxLTEzLjgxNyA3NC42ODIgMjkzLjcyNiAyOTMuNzI2IDAgMCAxLTMyLjQ4OCA2OC40NDF6IiBjbGFzcz0iY2xzLTEiLz48L3N2Zz4=" vertex="1" parent="96">
                    <mxGeometry x="150" y="52.5" width="41.3" height="40" as="geometry"/>
                </mxCell>
                <mxCell id="102" value="" style="group;fillColor=#f5f5f5;strokeColor=#666666;fontColor=#333333;" vertex="1" connectable="0" parent="93">
                    <mxGeometry x="180" y="170" width="160" height="60" as="geometry"/>
                </mxCell>
                <mxCell id="103" value="Node" style="rounded=1;whiteSpace=wrap;html=1;fillColor=none;spacing=0;spacingBottom=38;" vertex="1" parent="102">
                    <mxGeometry width="160" height="60" as="geometry"/>
                </mxCell>
                <mxCell id="104" value="Pod" style="rounded=1;whiteSpace=wrap;html=1;fillColor=none;" vertex="1" parent="102">
                    <mxGeometry x="10" y="20" width="40" height="30" as="geometry"/>
                </mxCell>
                <mxCell id="105" value="Pod" style="rounded=1;whiteSpace=wrap;html=1;fillColor=none;" vertex="1" parent="102">
                    <mxGeometry x="60" y="20" width="40" height="30" as="geometry"/>
                </mxCell>
                <mxCell id="106" value="Pod" style="rounded=1;whiteSpace=wrap;html=1;fillColor=none;" vertex="1" parent="102">
                    <mxGeometry x="110" y="20" width="40" height="30" as="geometry"/>
                </mxCell>
                <mxCell id="107" value="" style="group;fillColor=#f5f5f5;strokeColor=#666666;fontColor=#333333;" vertex="1" connectable="0" parent="93">
                    <mxGeometry x="180" y="97.5" width="160" height="60" as="geometry"/>
                </mxCell>
                <mxCell id="108" value="Node" style="rounded=1;whiteSpace=wrap;html=1;fillColor=none;spacing=0;spacingBottom=38;" vertex="1" parent="107">
                    <mxGeometry width="160" height="60" as="geometry"/>
                </mxCell>
                <mxCell id="109" value="Pod" style="rounded=1;whiteSpace=wrap;html=1;fillColor=none;" vertex="1" parent="107">
                    <mxGeometry x="10" y="20" width="40" height="30" as="geometry"/>
                </mxCell>
                <mxCell id="110" value="Pod" style="rounded=1;whiteSpace=wrap;html=1;fillColor=none;" vertex="1" parent="107">
                    <mxGeometry x="60" y="20" width="40" height="30" as="geometry"/>
                </mxCell>
                <mxCell id="111" value="Pod" style="rounded=1;whiteSpace=wrap;html=1;fillColor=none;" vertex="1" parent="107">
                    <mxGeometry x="110" y="20" width="40" height="30" as="geometry"/>
                </mxCell>
                <mxCell id="112" value="" style="group;fillColor=#f5f5f5;fontColor=#333333;strokeColor=#666666;" vertex="1" connectable="0" parent="93">
                    <mxGeometry x="180" y="24" width="160" height="60" as="geometry"/>
                </mxCell>
                <mxCell id="113" value="Node" style="rounded=1;whiteSpace=wrap;html=1;fillColor=#f5f5f5;spacing=0;spacingBottom=38;strokeColor=#666666;fontColor=#333333;" vertex="1" parent="112">
                    <mxGeometry width="160" height="60" as="geometry"/>
                </mxCell>
                <mxCell id="114" value="Pod" style="rounded=1;whiteSpace=wrap;html=1;fillColor=none;" vertex="1" parent="112">
                    <mxGeometry x="10" y="20" width="40" height="30" as="geometry"/>
                </mxCell>
                <mxCell id="115" value="Pod" style="rounded=1;whiteSpace=wrap;html=1;fillColor=none;" vertex="1" parent="112">
                    <mxGeometry x="60" y="20" width="40" height="30" as="geometry"/>
                </mxCell>
                <mxCell id="116" value="Pod" style="rounded=1;whiteSpace=wrap;html=1;fillColor=none;" vertex="1" parent="112">
                    <mxGeometry x="110" y="20" width="40" height="30" as="geometry"/>
                </mxCell>
                <mxCell id="117" style="edgeStyle=none;html=1;exitX=1;exitY=0.5;exitDx=0;exitDy=0;entryX=0;entryY=0.5;entryDx=0;entryDy=0;startArrow=classic;startFill=1;" edge="1" parent="93" source="108" target="97">
                    <mxGeometry relative="1" as="geometry"/>
                </mxCell>
                <mxCell id="118" style="edgeStyle=none;html=1;exitX=1;exitY=0.5;exitDx=0;exitDy=0;entryX=0;entryY=0.5;entryDx=0;entryDy=0;startArrow=classic;startFill=1;" edge="1" parent="93" source="119" target="94">
                    <mxGeometry relative="1" as="geometry"/>
                </mxCell>
                <mxCell id="119" value="Load Balancer" style="rounded=1;whiteSpace=wrap;html=1;fillColor=none;" vertex="1" parent="93">
                    <mxGeometry y="95" width="120" height="60" as="geometry"/>
                </mxCell>
                <mxCell id="120" value="" style="edgeStyle=none;html=1;startArrow=classic;startFill=1;" edge="1" parent="93" source="121" target="119">
                    <mxGeometry relative="1" as="geometry"/>
                </mxCell>
                <mxCell id="121" value="" style="html=1;verticalLabelPosition=bottom;align=center;labelBackgroundColor=#ffffff;verticalAlign=top;strokeWidth=2;strokeColor=#0080F0;shadow=0;dashed=0;shape=mxgraph.ios7.icons.cloud;fillColor=none;" vertex="1" parent="93">
                    <mxGeometry x="20" width="80" height="50" as="geometry"/>
                </mxCell>
                <mxCell id="122" value="Cloud&lt;br&gt;Provider" style="text;html=1;strokeColor=none;fillColor=none;align=center;verticalAlign=middle;whiteSpace=wrap;rounded=0;" vertex="1" parent="93">
                    <mxGeometry x="30" y="15" width="60" height="30" as="geometry"/>
                </mxCell>
                <mxCell id="123" value="" style="rounded=1;whiteSpace=wrap;html=1;fillColor=#dae8fc;strokeColor=#6c8ebf;" vertex="1" parent="1">
                    <mxGeometry x="50" y="330" width="530" height="230" as="geometry"/>
                </mxCell>
                <mxCell id="124" value="" style="sketch=0;aspect=fixed;html=1;points=[];align=center;image;fontSize=12;image=img/lib/mscae/Kubernetes.svg;" vertex="1" parent="1">
                    <mxGeometry x="270" y="350" width="50" height="48" as="geometry"/>
                </mxCell>
                <mxCell id="125" value="" style="group" vertex="1" connectable="0" parent="1">
                    <mxGeometry x="340" y="390" width="220" height="115" as="geometry"/>
                </mxCell>
                <mxCell id="126" value="" style="rounded=1;whiteSpace=wrap;html=1;fillColor=#f5f5f5;fontColor=#333333;strokeColor=#666666;" vertex="1" parent="125">
                    <mxGeometry width="220" height="115" as="geometry"/>
                </mxCell>
                <mxCell id="127" value="API&amp;nbsp;&lt;br&gt;Server" style="rounded=1;whiteSpace=wrap;html=1;" vertex="1" parent="125">
                    <mxGeometry x="20" y="12.5" width="60" height="50" as="geometry"/>
                </mxCell>
                <mxCell id="128" value="Controller&lt;br&gt;Manager" style="rounded=1;whiteSpace=wrap;html=1;" vertex="1" parent="125">
                    <mxGeometry x="90" y="12.5" width="120" height="30" as="geometry"/>
                </mxCell>
                <mxCell id="129" value="Scheduler" style="rounded=1;whiteSpace=wrap;html=1;" vertex="1" parent="125">
                    <mxGeometry x="20" y="72.5" width="110" height="30" as="geometry"/>
                </mxCell>
                <mxCell id="130" value="etcd" style="shape=image;verticalLabelPosition=bottom;verticalAlign=top;imageAspect=0;aspect=fixed;image=data:image/svg+xml,PHN2ZyB4bWxucz0iaHR0cDovL3d3dy53My5vcmcvMjAwMC9zdmciIHJvbGU9ImltZyIgdmlld0JveD0iLTYuMzEgMy42OSA1MTAuMTIgNDkzLjYyIj48ZGVmcz48c3R5bGU+LmNscy0xe2ZpbGw6IzQxOWVkYX08L3N0eWxlPjwvZGVmcz48cGF0aCBkPSJNMjI4LjE3NSAyMjQuNjg0YTMxLjk5NCAzMS45OTQgMCAxIDEtMzIuMDA3LTMxLjk4NiAzMi4wMTEgMzIuMDExIDAgMCAxIDMyLjAwNyAzMS45ODZ6bTQxLjM3IDBhMzIuMDA3IDMyLjAwNyAwIDEgMCAzMi4wMDctMzEuOTg2IDMxLjk4OCAzMS45ODggMCAwIDAtMzIuMDA3IDMxLjk4NnoiIGNsYXNzPSJjbHMtMSIvPjxwYXRoIGQ9Ik00ODcuMzcxIDI1OS4zOTlhODcuODIgODcuODIgMCAwIDEtNy4wNy4yNjcgOTIuMzYyIDkyLjM2MiAwIDAgMS00MC42MjEtOS40NTUgMzc3LjIwOSAzNzcuMjA5IDAgMCAwIDUuNDctNzEuODYgMzcxLjgwOCAzNzEuODA4IDAgMCAwLTQ2LjUwNy01NS4xMSA5Mi4zOTYgOTIuMzk2IDAgMCAxIDMyLjc3Mi0zNS4xMDJsNi4wMTYtMy43MjktNC42OTUtNS4zYTI0NC45MDYgMjQ0LjkwNiAwIDAgMC04NS41MjQtNjIuMzc3bC02LjUwNy0yLjgyOC0xLjY1NCA2Ljg2MmE5Mi4xNDQgOTIuMTQ0IDAgMCAxLTIzLjE5IDQyLjA5NiAzNzEuOTI4IDM3MS45MjggMCAwIDAtNjcuMDA2LTI3LjYwMiAzNzAuNjI0IDM3MC42MjQgMCAwIDAtNjYuOTA4IDI3LjU1OCA5MS45MTUgOTEuOTE1IDAgMCAxLTIzLjA5OC00Mi4wMDNsLTEuNjgxLTYuODg0LTYuNDg2IDIuODE3YTI0Ny4yMzIgMjQ3LjIzMiAwIDAgMC04NS41MTggNjIuMzU1bC00LjY4OSA1LjMgNi4wMDUgMy43MjRhOTIuMjQ5IDkyLjI0OSAwIDAgMSAzMi42OTUgMzQuOTE3IDM3NC42MyAzNzQuNjMgMCAwIDAtNDYuNDI1IDU0LjkwOCAzNzYuOTU2IDM3Ni45NTYgMCAwIDAgNS4zMjggNzIuMzM0IDkyLjExNSA5Mi4xMTUgMCAwIDEtNDAuMzc2IDkuMzc0IDg2LjM2IDg2LjM2IDAgMCAxLTcuMDg2LS4yNjhsLTcuMDUzLS41NTEuNjU1IDcuMDQyYTI0My40MTMgMjQzLjQxMyAwIDAgMCAzMi44OTcgMTAwLjY3OGwzLjU4MSA2LjA5OCA1LjM3Mi00LjU3NWE5Mi4wNTIgOTIuMDUyIDAgMCAxIDQzLjU5Mi0yMC40MDYgMzczLjk3IDM3My45NyAwIDAgMCAzNy4zMDggNjAuNzYgMzc3LjcxNyAzNzcuNzE3IDAgMCAwIDcwLjY5IDE3LjM4MiA5MS44NyA5MS44NyAwIDAgMS01Ljg4NSA0OC4yMzJsLTIuNjg2IDYuNTQgNi45IDEuNTI5YTI0Ni4zNTUgMjQ2LjM1NSAwIDAgMCA1Mi45NjYgNS44NTdsNTIuOTU0LTUuODU3IDYuOTA2LTEuNTI5LTIuNjc1LTYuNTRhOTEuNzU1IDkxLjc1NSAwIDAgMS01Ljg2OS00OC4yODYgMzc3Ljc4NCAzNzcuNzg0IDAgMCAwIDcwLjQwNy0xNy4zMjggMzcyLjMgMzcyLjMgMCAwIDAgMzcuMzM1LTYwLjgxNSA5Mi4yMzMgOTIuMjMzIDAgMCAxIDQzLjgxIDIwLjQyOGw1LjM3NyA0LjU1MyAzLjU4Ny02LjA0OWEyNDIuODQ0IDI0Mi44NDQgMCAwIDAgMzIuODU5LTEwMC42NzJsLjY1NS03LjAzN3pNMzI0LjY0NCAzNDUuNDVhMjg1Ljg4NCAyODUuODg0IDAgMCAxLTE1MS42MjggMCAyOTAuMTI0IDI5MC4xMjQgMCAwIDEtNDYuMTQxLTE0My4zODUgMjg4LjY3NSAyODguNjc1IDAgMCAxIDU0Ljk1Ny01Mi4zMTUgMjkzLjA2NSAyOTMuMDY1IDAgMCAxIDY3LjAyOC0zNi40NjIgMjkzLjk3NiAyOTMuOTc2IDAgMCAxIDY2Ljg5MSAzNi4zNjQgMjkwLjg4NiAyOTAuODg2IDAgMCAxIDU1LjE5OCA1Mi42NzUgMjkyLjI1MyAyOTIuMjUzIDAgMCAxLTEzLjgxNyA3NC42ODIgMjkzLjcyNiAyOTMuNzI2IDAgMCAxLTMyLjQ4OCA2OC40NDF6IiBjbGFzcz0iY2xzLTEiLz48L3N2Zz4=" vertex="1" parent="125">
                    <mxGeometry x="150" y="52.5" width="41.3" height="40" as="geometry"/>
                </mxCell>
                <mxCell id="131" value="" style="group;fillColor=#f5f5f5;strokeColor=#666666;fontColor=#333333;" vertex="1" connectable="0" parent="1">
                    <mxGeometry x="80" y="490" width="160" height="60" as="geometry"/>
                </mxCell>
                <mxCell id="132" value="Node" style="rounded=1;whiteSpace=wrap;html=1;fillColor=none;spacing=0;spacingBottom=38;" vertex="1" parent="131">
                    <mxGeometry width="160" height="60" as="geometry"/>
                </mxCell>
                <mxCell id="133" value="Pod" style="rounded=1;whiteSpace=wrap;html=1;fillColor=none;" vertex="1" parent="131">
                    <mxGeometry x="10" y="20" width="40" height="30" as="geometry"/>
                </mxCell>
                <mxCell id="134" value="Pod" style="rounded=1;whiteSpace=wrap;html=1;fillColor=none;" vertex="1" parent="131">
                    <mxGeometry x="60" y="20" width="40" height="30" as="geometry"/>
                </mxCell>
                <mxCell id="135" value="Pod" style="rounded=1;whiteSpace=wrap;html=1;fillColor=none;" vertex="1" parent="131">
                    <mxGeometry x="110" y="20" width="40" height="30" as="geometry"/>
                </mxCell>
                <mxCell id="136" value="" style="group;fillColor=#f5f5f5;strokeColor=#666666;fontColor=#333333;" vertex="1" connectable="0" parent="1">
                    <mxGeometry x="80" y="417.5" width="160" height="60" as="geometry"/>
                </mxCell>
                <mxCell id="137" value="Node" style="rounded=1;whiteSpace=wrap;html=1;fillColor=none;spacing=0;spacingBottom=38;" vertex="1" parent="136">
                    <mxGeometry width="160" height="60" as="geometry"/>
                </mxCell>
                <mxCell id="138" value="Pod" style="rounded=1;whiteSpace=wrap;html=1;fillColor=none;" vertex="1" parent="136">
                    <mxGeometry x="10" y="20" width="40" height="30" as="geometry"/>
                </mxCell>
                <mxCell id="139" value="Pod" style="rounded=1;whiteSpace=wrap;html=1;fillColor=none;" vertex="1" parent="136">
                    <mxGeometry x="60" y="20" width="40" height="30" as="geometry"/>
                </mxCell>
                <mxCell id="140" value="Pod" style="rounded=1;whiteSpace=wrap;html=1;fillColor=none;" vertex="1" parent="136">
                    <mxGeometry x="110" y="20" width="40" height="30" as="geometry"/>
                </mxCell>
                <mxCell id="141" value="" style="group;fillColor=#f5f5f5;fontColor=#333333;strokeColor=#666666;" vertex="1" connectable="0" parent="1">
                    <mxGeometry x="80" y="344" width="160" height="60" as="geometry"/>
                </mxCell>
                <mxCell id="142" value="Node" style="rounded=1;whiteSpace=wrap;html=1;fillColor=#f5f5f5;spacing=0;spacingBottom=38;strokeColor=#666666;fontColor=#333333;" vertex="1" parent="141">
                    <mxGeometry width="160" height="60" as="geometry"/>
                </mxCell>
                <mxCell id="143" value="Pod" style="rounded=1;whiteSpace=wrap;html=1;fillColor=none;" vertex="1" parent="141">
                    <mxGeometry x="10" y="20" width="40" height="30" as="geometry"/>
                </mxCell>
                <mxCell id="144" value="Pod" style="rounded=1;whiteSpace=wrap;html=1;fillColor=none;" vertex="1" parent="141">
                    <mxGeometry x="60" y="20" width="40" height="30" as="geometry"/>
                </mxCell>
                <mxCell id="145" value="Pod" style="rounded=1;whiteSpace=wrap;html=1;fillColor=none;" vertex="1" parent="141">
                    <mxGeometry x="110" y="20" width="40" height="30" as="geometry"/>
                </mxCell>
                <mxCell id="146" style="edgeStyle=none;html=1;exitX=1;exitY=0.5;exitDx=0;exitDy=0;entryX=0;entryY=0.5;entryDx=0;entryDy=0;startArrow=classic;startFill=1;" edge="1" parent="1" source="137" target="126">
                    <mxGeometry relative="1" as="geometry"/>
                </mxCell>
                <mxCell id="147" style="edgeStyle=none;html=1;exitX=1;exitY=0.5;exitDx=0;exitDy=0;entryX=0;entryY=0.5;entryDx=0;entryDy=0;startArrow=classic;startFill=1;" edge="1" parent="1" source="148" target="123">
                    <mxGeometry relative="1" as="geometry"/>
                </mxCell>
                <mxCell id="148" value="Load Balancer" style="rounded=1;whiteSpace=wrap;html=1;fillColor=none;" vertex="1" parent="1">
                    <mxGeometry x="-110" y="415" width="120" height="60" as="geometry"/>
                </mxCell>
                <mxCell id="149" value="" style="edgeStyle=none;html=1;startArrow=classic;startFill=1;" edge="1" parent="1" source="150" target="148">
                    <mxGeometry relative="1" as="geometry"/>
                </mxCell>
                <mxCell id="150" value="" style="html=1;verticalLabelPosition=bottom;align=center;labelBackgroundColor=#ffffff;verticalAlign=top;strokeWidth=2;strokeColor=#0080F0;shadow=0;dashed=0;shape=mxgraph.ios7.icons.cloud;fillColor=none;" vertex="1" parent="1">
                    <mxGeometry x="-90" y="320" width="80" height="50" as="geometry"/>
                </mxCell>
                <mxCell id="151" value="Cloud&lt;br&gt;Provider" style="text;html=1;strokeColor=none;fillColor=none;align=center;verticalAlign=middle;whiteSpace=wrap;rounded=0;" vertex="1" parent="1">
                    <mxGeometry x="-80" y="330" width="60" height="30" as="geometry"/>
                </mxCell>
                <mxCell id="152" style="edgeStyle=none;html=1;entryX=0;entryY=0.5;entryDx=0;entryDy=0;startArrow=classic;startFill=1;" edge="1" parent="1" source="155" target="119">
                    <mxGeometry relative="1" as="geometry">
                        <Array as="points">
                            <mxPoint x="-250" y="155"/>
                        </Array>
                    </mxGeometry>
                </mxCell>
                <mxCell id="153" style="edgeStyle=none;html=1;exitX=0.5;exitY=1;exitDx=0;exitDy=0;entryX=0;entryY=0.5;entryDx=0;entryDy=0;startArrow=classic;startFill=1;" edge="1" parent="1" source="155" target="148">
                    <mxGeometry relative="1" as="geometry">
                        <Array as="points">
                            <mxPoint x="-250" y="445"/>
                        </Array>
                    </mxGeometry>
                </mxCell>
                <mxCell id="154" value="Client&lt;br&gt;Request" style="edgeStyle=none;html=1;exitX=0;exitY=0.5;exitDx=0;exitDy=0;startArrow=classic;startFill=1;" edge="1" parent="1" source="155">
                    <mxGeometry relative="1" as="geometry">
                        <mxPoint x="-480" y="295" as="targetPoint"/>
                    </mxGeometry>
                </mxCell>
                <mxCell id="155" value="Load Balancer" style="rounded=1;whiteSpace=wrap;html=1;fillColor=none;" vertex="1" parent="1">
                    <mxGeometry x="-310" y="270" width="120" height="50" as="geometry"/>
                </mxCell>
                <mxCell id="157" value="Cilium based CNI Setup" style="text;html=1;align=center;verticalAlign=middle;resizable=0;points=[];autosize=1;strokeColor=none;fillColor=none;" vertex="1" parent="1">
                    <mxGeometry x="235" y="555" width="150" height="30" as="geometry"/>
                </mxCell>
                <mxCell id="158" value="Calico based CNI Setup" style="text;html=1;align=center;verticalAlign=middle;resizable=0;points=[];autosize=1;strokeColor=none;fillColor=none;" vertex="1" parent="1">
                    <mxGeometry x="225" y="270" width="150" height="30" as="geometry"/>
                </mxCell>
            </root>
        </mxGraphModel>
    </diagram>
</mxfile>